<svg viewBox="-154.10559290563822 -630.0 308.21118581127644 640.0" xmlns="http://www.w3.org/2000/svg" style="background: white">
	<line x1="0" y1="0" x2="6.123233995736766e-16" y2="-10.0" stroke-width="1" stroke="black" />
	<line x1="6.123233995736766e-16" y1="-10.0" x2="1.2246467991473533e-15" y2="-20.0" stroke-width="1" stroke="black" />
	<line x1="1.2246467991473533e-15" y1="-20.0" x2="1.83697019872103e-15" y2="-30.0" stroke-width="1" stroke="black" />
	<line x1="1.83697019872103e-15" y1="-30.0" x2="2.4492935982947065e-15" y2="-40.0" stroke-width="1" stroke="black" />
	<line x1="2.4492935982947065e-15" y1="-40.0" x2="3.061616997868383e-15" y2="-50.0" stroke-width="1" stroke="black" />
	<line x1="3.061616997868383e-15" y1="-50.0" x2="3.67394039744206e-15" y2="-60.0" stroke-width="1" stroke="black" />
	<line x1="3.67394039744206e-15" y1="-60.0" x2="4.2862637970157365e-15" y2="-70.0" stroke-width="1" stroke="black" />
	<line x1="4.2862637970157365e-15" y1="-70.0" x2="4.898587196589413e-15" y2="-80.0" stroke-width="1" stroke="black" />
	<line x1="4.898587196589413e-15" y1="-80.0" x2="5.5109105961630896e-15" y2="-90.0" stroke-width="1" stroke="black" />
	<line x1="5.5109105961630896e-15" y1="-90.0" x2="6.123233995736766e-15" y2="-100.0" stroke-width="1" stroke="black" />
	<line x1="6.123233995736766e-15" y1="-100.0" x2="6.735557395310443e-15" y2="-110.0" stroke-width="1" stroke="black" />
	<line x1="6.735557395310443e-15" y1="-110.0" x2="7.34788079488412e-15" y2="-120.0" stroke-width="1" stroke="black" />
	<line x1="7.34788079488412e-15" y1="-120.0" x2="7.960204194457797e-15" y2="-130.0" stroke-width="1" stroke="black" />
	<line x1="7.960204194457797e-15" y1="-130.0" x2="8.572527594031475e-15" y2="-140.0" stroke-width="1" stroke="black" />
	<line x1="8.572527594031475e-15" y1="-140.0" x2="9.184850993605152e-15" y2="-150.0" stroke-width="1" stroke="black" />
	<line x1="9.184850993605152e-15" y1="-150.0" x2="9.797174393178829e-15" y2="-160.0" stroke-width="1" stroke="black" />
	<line x1="9.797174393178829e-15" y1="-160.0" x2="4.336590845875454" y2="-169.01077021322092" stroke-width="1" stroke="red" />
	<line x1="4.336590845875454" y1="-169.01077021322092" x2="8.673181691750898" y2="-178.02154042644185" stroke-width="1" stroke="red" />
	<line x1="8.673181691750898" y1="-178.02154042644185" x2="13.009772537626343" y2="-187.03231063966277" stroke-width="1" stroke="red" />
	<line x1="13.009772537626343" y1="-187.03231063966277" x2="17.34636338350179" y2="-196.0430808528837" stroke-width="1" stroke="red" />
	<line x1="17.34636338350179" y1="-196.0430808528837" x2="21.682954229377234" y2="-205.0538510661046" stroke-width="1" stroke="red" />
	<line x1="21.682954229377234" y1="-205.0538510661046" x2="26.01954507525268" y2="-214.06462127932554" stroke-width="1" stroke="red" />
	<line x1="26.01954507525268" y1="-214.06462127932554" x2="30.356135921128125" y2="-223.07539149254646" stroke-width="1" stroke="red" />
	<line x1="30.356135921128125" y1="-223.07539149254646" x2="34.69272676700357" y2="-232.08616170576738" stroke-width="1" stroke="red" />
	<line x1="34.69272676700357" y1="-232.08616170576738" x2="42.507931491191755" y2="-238.32495767286125" stroke-width="1" stroke="red" />
	<line x1="42.507931491191755" y1="-238.32495767286125" x2="50.32313621537995" y2="-244.5637536399551" stroke-width="1" stroke="red" />
	<line x1="50.32313621537995" y1="-244.5637536399551" x2="58.13834093956814" y2="-250.80254960704897" stroke-width="1" stroke="red" />
	<line x1="58.13834093956814" y1="-250.80254960704897" x2="65.95354566375633" y2="-257.04134557414284" stroke-width="1" stroke="red" />
	<line x1="65.95354566375633" y1="-257.04134557414284" x2="75.70115760566856" y2="-259.27384673425234" stroke-width="1" stroke="red" />
	<line x1="75.70115760566856" y1="-259.27384673425234" x2="85.44876954758078" y2="-261.50634789436185" stroke-width="1" stroke="red" />
	<line x1="85.44876954758078" y1="-261.50634789436185" x2="95.20026309063641" y2="-259.2908629181672" stroke-width="1" stroke="red" />
	<line x1="95.20026309063641" y1="-259.2908629181672" x2="104.95175663369204" y2="-257.07537794197253" stroke-width="1" stroke="blue" />
	<line x1="85.44876954758078" y1="-261.50634789436185" x2="93.26397427176897" y2="-267.7451438614557" stroke-width="1" stroke="red" />
	<line x1="93.26397427176897" y1="-267.7451438614557" x2="101.07917899595716" y2="-273.9839398285495" stroke-width="1" stroke="blue" />
	<line x1="85.44876954758078" y1="-261.50634789436185" x2="95.196381489493" y2="-263.73884905447136" stroke-width="1" stroke="blue" />
	<line x1="95.196381489493" y1="-263.73884905447136" x2="104.94399343140523" y2="-265.97135021458087" stroke-width="1" stroke="blue" />
	<line x1="104.94399343140523" y1="-265.97135021458087" x2="114.69160537331746" y2="-268.2038513746904" stroke-width="1" stroke="blue" />
	<line x1="114.69160537331746" y1="-268.2038513746904" x2="124.43921731522968" y2="-270.4363525347999" stroke-width="1" stroke="blue" />
	<line x1="65.95354566375633" y1="-257.04134557414284" x2="70.29013650963178" y2="-266.05211578736373" stroke-width="1" stroke="red" />
	<line x1="70.29013650963178" y1="-266.05211578736373" x2="74.62672735550723" y2="-275.0628860005846" stroke-width="1" stroke="red" />
	<line x1="74.62672735550723" y1="-275.0628860005846" x2="82.44193207969542" y2="-281.30168196767846" stroke-width="1" stroke="red" />
	<line x1="82.44193207969542" y1="-281.30168196767846" x2="90.25713680388361" y2="-287.5404779347723" stroke-width="1" stroke="blue" />
	<line x1="74.62672735550723" y1="-275.0628860005846" x2="74.62672735550723" y2="-285.0628860005846" stroke-width="1" stroke="red" />
	<line x1="74.62672735550723" y1="-285.0628860005846" x2="74.62672735550723" y2="-295.0628860005846" stroke-width="1" stroke="blue" />
	<line x1="74.62672735550723" y1="-275.0628860005846" x2="78.96331820138268" y2="-284.0736562138055" stroke-width="1" stroke="blue" />
	<line x1="78.96331820138268" y1="-284.0736562138055" x2="83.29990904725813" y2="-293.0844264270264" stroke-width="1" stroke="blue" />
	<line x1="83.29990904725813" y1="-293.0844264270264" x2="87.63649989313357" y2="-302.0951966402473" stroke-width="1" stroke="blue" />
	<line x1="87.63649989313357" y1="-302.0951966402473" x2="91.97309073900902" y2="-311.1059668534682" stroke-width="1" stroke="blue" />
	<line x1="65.95354566375633" y1="-257.04134557414284" x2="73.76875038794452" y2="-263.2801415412367" stroke-width="1" stroke="blue" />
	<line x1="73.76875038794452" y1="-263.2801415412367" x2="81.58395511213271" y2="-269.5189375083305" stroke-width="1" stroke="blue" />
	<line x1="81.58395511213271" y1="-269.5189375083305" x2="89.3991598363209" y2="-275.75773347542435" stroke-width="1" stroke="blue" />
	<line x1="89.3991598363209" y1="-275.75773347542435" x2="97.2143645605091" y2="-281.9965294425182" stroke-width="1" stroke="blue" />
	<line x1="97.2143645605091" y1="-281.9965294425182" x2="105.02956928469729" y2="-288.235325409612" stroke-width="1" stroke="blue" />
	<line x1="105.02956928469729" y1="-288.235325409612" x2="112.84477400888548" y2="-294.47412137670585" stroke-width="1" stroke="blue" />
	<line x1="112.84477400888548" y1="-294.47412137670585" x2="122.5923859507977" y2="-296.70662253681536" stroke-width="1" stroke="red" />
	<line x1="122.5923859507977" y1="-296.70662253681536" x2="132.33999789270993" y2="-298.93912369692487" stroke-width="1" stroke="blue" />
	<line x1="112.84477400888548" y1="-294.47412137670585" x2="117.18136485476093" y2="-303.48489158992675" stroke-width="1" stroke="red" />
	<line x1="117.18136485476093" y1="-303.48489158992675" x2="121.51795570063638" y2="-312.49566180314764" stroke-width="1" stroke="blue" />
	<line x1="112.84477400888548" y1="-294.47412137670585" x2="120.65997873307367" y2="-300.7129173437997" stroke-width="1" stroke="blue" />
	<line x1="120.65997873307367" y1="-300.7129173437997" x2="128.47518345726186" y2="-306.9517133108935" stroke-width="1" stroke="blue" />
	<line x1="128.47518345726186" y1="-306.9517133108935" x2="136.29038818145006" y2="-313.19050927798736" stroke-width="1" stroke="blue" />
	<line x1="136.29038818145006" y1="-313.19050927798736" x2="144.10559290563825" y2="-319.4293052450812" stroke-width="1" stroke="blue" />
	<line x1="34.69272676700357" y1="-232.08616170576738" x2="34.69272676700357" y2="-242.08616170576738" stroke-width="1" stroke="red" />
	<line x1="34.69272676700357" y1="-242.08616170576738" x2="34.69272676700357" y2="-252.08616170576738" stroke-width="1" stroke="red" />
	<line x1="34.69272676700357" y1="-252.08616170576738" x2="34.69272676700357" y2="-262.0861617057674" stroke-width="1" stroke="red" />
	<line x1="34.69272676700357" y1="-262.0861617057674" x2="34.69272676700357" y2="-272.0861617057674" stroke-width="1" stroke="red" />
	<line x1="34.69272676700357" y1="-272.0861617057674" x2="39.02931761287901" y2="-281.0969319189883" stroke-width="1" stroke="red" />
	<line x1="39.02931761287901" y1="-281.0969319189883" x2="43.365908458754454" y2="-290.10770213220917" stroke-width="1" stroke="red" />
	<line x1="43.365908458754454" y1="-290.10770213220917" x2="51.18111318294264" y2="-296.346498099303" stroke-width="1" stroke="red" />
	<line x1="51.18111318294264" y1="-296.346498099303" x2="58.99631790713083" y2="-302.58529406639684" stroke-width="1" stroke="blue" />
	<line x1="43.365908458754454" y1="-290.10770213220917" x2="43.365908458754454" y2="-300.10770213220917" stroke-width="1" stroke="red" />
	<line x1="43.365908458754454" y1="-300.10770213220917" x2="43.365908458754454" y2="-310.10770213220917" stroke-width="1" stroke="blue" />
	<line x1="43.365908458754454" y1="-290.10770213220917" x2="47.702499304629896" y2="-299.11847234543006" stroke-width="1" stroke="blue" />
	<line x1="47.702499304629896" y1="-299.11847234543006" x2="52.03909015050534" y2="-308.12924255865096" stroke-width="1" stroke="blue" />
	<line x1="52.03909015050534" y1="-308.12924255865096" x2="56.37568099638078" y2="-317.14001277187185" stroke-width="1" stroke="blue" />
	<line x1="56.37568099638078" y1="-317.14001277187185" x2="60.71227184225622" y2="-326.15078298509275" stroke-width="1" stroke="blue" />
	<line x1="34.69272676700357" y1="-272.0861617057674" x2="30.35613592112813" y2="-281.0969319189883" stroke-width="1" stroke="red" />
	<line x1="30.35613592112813" y1="-281.0969319189883" x2="26.019545075252687" y2="-290.10770213220917" stroke-width="1" stroke="red" />
	<line x1="26.019545075252687" y1="-290.10770213220917" x2="26.019545075252687" y2="-300.10770213220917" stroke-width="1" stroke="red" />
	<line x1="26.019545075252687" y1="-300.10770213220917" x2="26.019545075252687" y2="-310.10770213220917" stroke-width="1" stroke="blue" />
	<line x1="26.019545075252687" y1="-290.10770213220917" x2="18.2043403510645" y2="-296.346498099303" stroke-width="1" stroke="red" />
	<line x1="18.2043403510645" y1="-296.346498099303" x2="10.38913562687631" y2="-302.58529406639684" stroke-width="1" stroke="blue" />
	<line x1="26.019545075252687" y1="-290.10770213220917" x2="21.682954229377245" y2="-299.11847234543006" stroke-width="1" stroke="blue" />
	<line x1="21.682954229377245" y1="-299.11847234543006" x2="17.346363383501803" y2="-308.12924255865096" stroke-width="1" stroke="blue" />
	<line x1="17.346363383501803" y1="-308.12924255865096" x2="13.00977253762636" y2="-317.14001277187185" stroke-width="1" stroke="blue" />
	<line x1="13.00977253762636" y1="-317.14001277187185" x2="8.673181691750916" y2="-326.15078298509275" stroke-width="1" stroke="blue" />
	<line x1="34.69272676700357" y1="-272.0861617057674" x2="34.69272676700357" y2="-282.0861617057674" stroke-width="1" stroke="blue" />
	<line x1="34.69272676700357" y1="-282.0861617057674" x2="34.69272676700357" y2="-292.0861617057674" stroke-width="1" stroke="blue" />
	<line x1="34.69272676700357" y1="-292.0861617057674" x2="34.69272676700357" y2="-302.0861617057674" stroke-width="1" stroke="blue" />
	<line x1="34.69272676700357" y1="-302.0861617057674" x2="34.69272676700357" y2="-312.0861617057674" stroke-width="1" stroke="blue" />
	<line x1="34.69272676700357" y1="-312.0861617057674" x2="34.69272676700357" y2="-322.0861617057674" stroke-width="1" stroke="blue" />
	<line x1="34.69272676700357" y1="-322.0861617057674" x2="34.69272676700357" y2="-332.0861617057674" stroke-width="1" stroke="blue" />
	<line x1="34.69272676700357" y1="-332.0861617057674" x2="39.02931761287901" y2="-341.0969319189883" stroke-width="1" stroke="red" />
	<line x1="39.02931761287901" y1="-341.0969319189883" x2="43.365908458754454" y2="-350.10770213220917" stroke-width="1" stroke="blue" />
	<line x1="34.69272676700357" y1="-332.0861617057674" x2="30.35613592112813" y2="-341.0969319189883" stroke-width="1" stroke="red" />
	<line x1="30.35613592112813" y1="-341.0969319189883" x2="26.019545075252687" y2="-350.10770213220917" stroke-width="1" stroke="blue" />
	<line x1="34.69272676700357" y1="-332.0861617057674" x2="34.69272676700357" y2="-342.0861617057674" stroke-width="1" stroke="blue" />
	<line x1="34.69272676700357" y1="-342.0861617057674" x2="34.69272676700357" y2="-352.0861617057674" stroke-width="1" stroke="blue" />
	<line x1="34.69272676700357" y1="-352.0861617057674" x2="34.69272676700357" y2="-362.0861617057674" stroke-width="1" stroke="blue" />
	<line x1="34.69272676700357" y1="-362.0861617057674" x2="34.69272676700357" y2="-372.0861617057674" stroke-width="1" stroke="blue" />
	<line x1="34.69272676700357" y1="-232.08616170576738" x2="39.02931761287901" y2="-241.0969319189883" stroke-width="1" stroke="blue" />
	<line x1="39.02931761287901" y1="-241.0969319189883" x2="43.365908458754454" y2="-250.10770213220923" stroke-width="1" stroke="blue" />
	<line x1="43.365908458754454" y1="-250.10770213220923" x2="47.702499304629896" y2="-259.1184723454301" stroke-width="1" stroke="blue" />
	<line x1="47.702499304629896" y1="-259.1184723454301" x2="52.03909015050534" y2="-268.129242558651" stroke-width="1" stroke="blue" />
	<line x1="52.03909015050534" y1="-268.129242558651" x2="56.37568099638078" y2="-277.1400127718719" stroke-width="1" stroke="blue" />
	<line x1="56.37568099638078" y1="-277.1400127718719" x2="60.71227184225622" y2="-286.1507829850928" stroke-width="1" stroke="blue" />
	<line x1="60.71227184225622" y1="-286.1507829850928" x2="65.04886268813166" y2="-295.1615531983137" stroke-width="1" stroke="blue" />
	<line x1="65.04886268813166" y1="-295.1615531983137" x2="69.38545353400711" y2="-304.1723234115346" stroke-width="1" stroke="blue" />
	<line x1="69.38545353400711" y1="-304.1723234115346" x2="73.72204437988256" y2="-313.1830936247555" stroke-width="1" stroke="blue" />
	<line x1="73.72204437988256" y1="-313.1830936247555" x2="78.05863522575801" y2="-322.1938638379764" stroke-width="1" stroke="blue" />
	<line x1="78.05863522575801" y1="-322.1938638379764" x2="82.39522607163346" y2="-331.2046340511973" stroke-width="1" stroke="blue" />
	<line x1="82.39522607163346" y1="-331.2046340511973" x2="86.73181691750891" y2="-340.21540426441817" stroke-width="1" stroke="blue" />
	<line x1="86.73181691750891" y1="-340.21540426441817" x2="94.5470216416971" y2="-346.454200231512" stroke-width="1" stroke="red" />
	<line x1="94.5470216416971" y1="-346.454200231512" x2="102.36222636588529" y2="-352.69299619860584" stroke-width="1" stroke="red" />
	<line x1="102.36222636588529" y1="-352.69299619860584" x2="112.1098383077975" y2="-354.92549735871535" stroke-width="1" stroke="red" />
	<line x1="112.1098383077975" y1="-354.92549735871535" x2="121.85745024970973" y2="-357.15799851882485" stroke-width="1" stroke="blue" />
	<line x1="102.36222636588529" y1="-352.69299619860584" x2="106.69881721176074" y2="-361.70376641182673" stroke-width="1" stroke="red" />
	<line x1="106.69881721176074" y1="-361.70376641182673" x2="111.03540805763619" y2="-370.71453662504763" stroke-width="1" stroke="blue" />
	<line x1="102.36222636588529" y1="-352.69299619860584" x2="110.17743109007348" y2="-358.9317921656997" stroke-width="1" stroke="blue" />
	<line x1="110.17743109007348" y1="-358.9317921656997" x2="117.99263581426167" y2="-365.1705881327935" stroke-width="1" stroke="blue" />
	<line x1="117.99263581426167" y1="-365.1705881327935" x2="125.80784053844987" y2="-371.40938409988735" stroke-width="1" stroke="blue" />
	<line x1="125.80784053844987" y1="-371.40938409988735" x2="133.62304526263804" y2="-377.6481800669812" stroke-width="1" stroke="blue" />
	<line x1="86.73181691750891" y1="-340.21540426441817" x2="86.73181691750891" y2="-350.21540426441817" stroke-width="1" stroke="red" />
	<line x1="86.73181691750891" y1="-350.21540426441817" x2="86.73181691750891" y2="-360.21540426441817" stroke-width="1" stroke="red" />
	<line x1="86.73181691750891" y1="-360.21540426441817" x2="91.06840776338436" y2="-369.22617447763906" stroke-width="1" stroke="red" />
	<line x1="91.06840776338436" y1="-369.22617447763906" x2="95.4049986092598" y2="-378.23694469085996" stroke-width="1" stroke="blue" />
	<line x1="86.73181691750891" y1="-360.21540426441817" x2="82.39522607163346" y2="-369.22617447763906" stroke-width="1" stroke="red" />
	<line x1="82.39522607163346" y1="-369.22617447763906" x2="78.05863522575801" y2="-378.23694469085996" stroke-width="1" stroke="blue" />
	<line x1="86.73181691750891" y1="-360.21540426441817" x2="86.73181691750891" y2="-370.21540426441817" stroke-width="1" stroke="blue" />
	<line x1="86.73181691750891" y1="-370.21540426441817" x2="86.73181691750891" y2="-380.21540426441817" stroke-width="1" stroke="blue" />
	<line x1="86.73181691750891" y1="-380.21540426441817" x2="86.73181691750891" y2="-390.21540426441817" stroke-width="1" stroke="blue" />
	<line x1="86.73181691750891" y1="-390.21540426441817" x2="86.73181691750891" y2="-400.21540426441817" stroke-width="1" stroke="blue" />
	<line x1="86.73181691750891" y1="-340.21540426441817" x2="91.06840776338436" y2="-349.22617447763906" stroke-width="1" stroke="blue" />
	<line x1="91.06840776338436" y1="-349.22617447763906" x2="95.4049986092598" y2="-358.23694469085996" stroke-width="1" stroke="blue" />
	<line x1="95.4049986092598" y1="-358.23694469085996" x2="99.74158945513526" y2="-367.24771490408085" stroke-width="1" stroke="blue" />
	<line x1="99.74158945513526" y1="-367.24771490408085" x2="104.0781803010107" y2="-376.25848511730175" stroke-width="1" stroke="blue" />
	<line x1="104.0781803010107" y1="-376.25848511730175" x2="108.41477114688615" y2="-385.26925533052264" stroke-width="1" stroke="blue" />
	<line x1="108.41477114688615" y1="-385.26925533052264" x2="112.7513619927616" y2="-394.28002554374353" stroke-width="1" stroke="blue" />
	<line x1="112.7513619927616" y1="-394.28002554374353" x2="120.5665667169498" y2="-400.51882151083737" stroke-width="1" stroke="red" />
	<line x1="120.5665667169498" y1="-400.51882151083737" x2="128.38177144113797" y2="-406.7576174779312" stroke-width="1" stroke="blue" />
	<line x1="112.7513619927616" y1="-394.28002554374353" x2="112.7513619927616" y2="-404.28002554374353" stroke-width="1" stroke="red" />
	<line x1="112.7513619927616" y1="-404.28002554374353" x2="112.7513619927616" y2="-414.28002554374353" stroke-width="1" stroke="blue" />
	<line x1="112.7513619927616" y1="-394.28002554374353" x2="117.08795283863705" y2="-403.2907957569644" stroke-width="1" stroke="blue" />
	<line x1="117.08795283863705" y1="-403.2907957569644" x2="121.4245436845125" y2="-412.3015659701853" stroke-width="1" stroke="blue" />
	<line x1="121.4245436845125" y1="-412.3015659701853" x2="125.76113453038795" y2="-421.3123361834062" stroke-width="1" stroke="blue" />
	<line x1="125.76113453038795" y1="-421.3123361834062" x2="130.09772537626338" y2="-430.3231063966271" stroke-width="1" stroke="blue" />
	<line x1="9.797174393178829e-15" y1="-160.0" x2="-4.336590845875434" y2="-169.01077021322092" stroke-width="1" stroke="red" />
	<line x1="-4.336590845875434" y1="-169.01077021322092" x2="-8.673181691750877" y2="-178.02154042644185" stroke-width="1" stroke="red" />
	<line x1="-8.673181691750877" y1="-178.02154042644185" x2="-13.00977253762632" y2="-187.03231063966277" stroke-width="1" stroke="red" />
	<line x1="-13.00977253762632" y1="-187.03231063966277" x2="-17.346363383501764" y2="-196.0430808528837" stroke-width="1" stroke="red" />
	<line x1="-17.346363383501764" y1="-196.0430808528837" x2="-21.68295422937721" y2="-205.0538510661046" stroke-width="1" stroke="red" />
	<line x1="-21.68295422937721" y1="-205.0538510661046" x2="-26.01954507525265" y2="-214.06462127932554" stroke-width="1" stroke="red" />
	<line x1="-26.01954507525265" y1="-214.06462127932554" x2="-30.356135921128093" y2="-223.07539149254646" stroke-width="1" stroke="red" />
	<line x1="-30.356135921128093" y1="-223.07539149254646" x2="-34.692726767003535" y2="-232.08616170576738" stroke-width="1" stroke="red" />
	<line x1="-34.692726767003535" y1="-232.08616170576738" x2="-34.692726767003535" y2="-242.08616170576738" stroke-width="1" stroke="red" />
	<line x1="-34.692726767003535" y1="-242.08616170576738" x2="-34.692726767003535" y2="-252.08616170576738" stroke-width="1" stroke="red" />
	<line x1="-34.692726767003535" y1="-252.08616170576738" x2="-34.692726767003535" y2="-262.0861617057674" stroke-width="1" stroke="red" />
	<line x1="-34.692726767003535" y1="-262.0861617057674" x2="-34.692726767003535" y2="-272.0861617057674" stroke-width="1" stroke="red" />
	<line x1="-34.692726767003535" y1="-272.0861617057674" x2="-30.35613592112809" y2="-281.0969319189883" stroke-width="1" stroke="red" />
	<line x1="-30.35613592112809" y1="-281.0969319189883" x2="-26.019545075252644" y2="-290.10770213220917" stroke-width="1" stroke="red" />
	<line x1="-26.019545075252644" y1="-290.10770213220917" x2="-18.204340351064456" y2="-296.346498099303" stroke-width="1" stroke="red" />
	<line x1="-18.204340351064456" y1="-296.346498099303" x2="-10.389135626876268" y2="-302.58529406639684" stroke-width="1" stroke="blue" />
	<line x1="-26.019545075252644" y1="-290.10770213220917" x2="-26.019545075252644" y2="-300.10770213220917" stroke-width="1" stroke="red" />
	<line x1="-26.019545075252644" y1="-300.10770213220917" x2="-26.019545075252644" y2="-310.10770213220917" stroke-width="1" stroke="blue" />
	<line x1="-26.019545075252644" y1="-290.10770213220917" x2="-21.6829542293772" y2="-299.11847234543006" stroke-width="1" stroke="blue" />
	<line x1="-21.6829542293772" y1="-299.11847234543006" x2="-17.346363383501753" y2="-308.12924255865096" stroke-width="1" stroke="blue" />
	<line x1="-17.346363383501753" y1="-308.12924255865096" x2="-13.009772537626308" y2="-317.14001277187185" stroke-width="1" stroke="blue" />
	<line x1="-13.009772537626308" y1="-317.14001277187185" x2="-8.673181691750862" y2="-326.15078298509275" stroke-width="1" stroke="blue" />
	<line x1="-34.692726767003535" y1="-272.0861617057674" x2="-39.02931761287898" y2="-281.0969319189883" stroke-width="1" stroke="red" />
	<line x1="-39.02931761287898" y1="-281.0969319189883" x2="-43.36590845875442" y2="-290.10770213220917" stroke-width="1" stroke="red" />
	<line x1="-43.36590845875442" y1="-290.10770213220917" x2="-43.36590845875442" y2="-300.10770213220917" stroke-width="1" stroke="red" />
	<line x1="-43.36590845875442" y1="-300.10770213220917" x2="-43.36590845875442" y2="-310.10770213220917" stroke-width="1" stroke="blue" />
	<line x1="-43.36590845875442" y1="-290.10770213220917" x2="-51.18111318294261" y2="-296.346498099303" stroke-width="1" stroke="red" />
	<line x1="-51.18111318294261" y1="-296.346498099303" x2="-58.9963179071308" y2="-302.58529406639684" stroke-width="1" stroke="blue" />
	<line x1="-43.36590845875442" y1="-290.10770213220917" x2="-47.70249930462986" y2="-299.11847234543006" stroke-width="1" stroke="blue" />
	<line x1="-47.70249930462986" y1="-299.11847234543006" x2="-52.0390901505053" y2="-308.12924255865096" stroke-width="1" stroke="blue" />
	<line x1="-52.0390901505053" y1="-308.12924255865096" x2="-56.375680996380744" y2="-317.14001277187185" stroke-width="1" stroke="blue" />
	<line x1="-56.375680996380744" y1="-317.14001277187185" x2="-60.712271842256186" y2="-326.15078298509275" stroke-width="1" stroke="blue" />
	<line x1="-34.692726767003535" y1="-272.0861617057674" x2="-34.692726767003535" y2="-282.0861617057674" stroke-width="1" stroke="blue" />
	<line x1="-34.692726767003535" y1="-282.0861617057674" x2="-34.692726767003535" y2="-292.0861617057674" stroke-width="1" stroke="blue" />
	<line x1="-34.692726767003535" y1="-292.0861617057674" x2="-34.692726767003535" y2="-302.0861617057674" stroke-width="1" stroke="blue" />
	<line x1="-34.692726767003535" y1="-302.0861617057674" x2="-34.692726767003535" y2="-312.0861617057674" stroke-width="1" stroke="blue" />
	<line x1="-34.692726767003535" y1="-312.0861617057674" x2="-34.692726767003535" y2="-322.0861617057674" stroke-width="1" stroke="blue" />
	<line x1="-34.692726767003535" y1="-322.0861617057674" x2="-34.692726767003535" y2="-332.0861617057674" stroke-width="1" stroke="blue" />
	<line x1="-34.692726767003535" y1="-332.0861617057674" x2="-30.35613592112809" y2="-341.0969319189883" stroke-width="1" stroke="red" />
	<line x1="-30.35613592112809" y1="-341.0969319189883" x2="-26.019545075252644" y2="-350.10770213220917" stroke-width="1" stroke="blue" />
	<line x1="-34.692726767003535" y1="-332.0861617057674" x2="-39.02931761287898" y2="-341.0969319189883" stroke-width="1" stroke="red" />
	<line x1="-39.02931761287898" y1="-341.0969319189883" x2="-43.36590845875442" y2="-350.10770213220917" stroke-width="1" stroke="blue" />
	<line x1="-34.692726767003535" y1="-332.0861617057674" x2="-34.692726767003535" y2="-342.0861617057674" stroke-width="1" stroke="blue" />
	<line x1="-34.692726767003535" y1="-342.0861617057674" x2="-34.692726767003535" y2="-352.0861617057674" stroke-width="1" stroke="blue" />
	<line x1="-34.692726767003535" y1="-352.0861617057674" x2="-34.692726767003535" y2="-362.0861617057674" stroke-width="1" stroke="blue" />
	<line x1="-34.692726767003535" y1="-362.0861617057674" x2="-34.692726767003535" y2="-372.0861617057674" stroke-width="1" stroke="blue" />
	<line x1="-34.692726767003535" y1="-232.08616170576738" x2="-42.50793149119173" y2="-238.32495767286125" stroke-width="1" stroke="red" />
	<line x1="-42.50793149119173" y1="-238.32495767286125" x2="-50.32313621537992" y2="-244.5637536399551" stroke-width="1" stroke="red" />
	<line x1="-50.32313621537992" y1="-244.5637536399551" x2="-58.13834093956811" y2="-250.80254960704897" stroke-width="1" stroke="red" />
	<line x1="-58.13834093956811" y1="-250.80254960704897" x2="-65.9535456637563" y2="-257.04134557414284" stroke-width="1" stroke="red" />
	<line x1="-65.9535456637563" y1="-257.04134557414284" x2="-70.29013650963175" y2="-266.05211578736373" stroke-width="1" stroke="red" />
	<line x1="-70.29013650963175" y1="-266.05211578736373" x2="-74.6267273555072" y2="-275.0628860005846" stroke-width="1" stroke="red" />
	<line x1="-74.6267273555072" y1="-275.0628860005846" x2="-74.6267273555072" y2="-285.0628860005846" stroke-width="1" stroke="red" />
	<line x1="-74.6267273555072" y1="-285.0628860005846" x2="-74.6267273555072" y2="-295.0628860005846" stroke-width="1" stroke="blue" />
	<line x1="-74.6267273555072" y1="-275.0628860005846" x2="-82.44193207969539" y2="-281.30168196767846" stroke-width="1" stroke="red" />
	<line x1="-82.44193207969539" y1="-281.30168196767846" x2="-90.25713680388358" y2="-287.5404779347723" stroke-width="1" stroke="blue" />
	<line x1="-74.6267273555072" y1="-275.0628860005846" x2="-78.96331820138265" y2="-284.0736562138055" stroke-width="1" stroke="blue" />
	<line x1="-78.96331820138265" y1="-284.0736562138055" x2="-83.2999090472581" y2="-293.0844264270264" stroke-width="1" stroke="blue" />
	<line x1="-83.2999090472581" y1="-293.0844264270264" x2="-87.63649989313355" y2="-302.0951966402473" stroke-width="1" stroke="blue" />
	<line x1="-87.63649989313355" y1="-302.0951966402473" x2="-91.973090739009" y2="-311.1059668534682" stroke-width="1" stroke="blue" />
	<line x1="-65.9535456637563" y1="-257.04134557414284" x2="-75.70115760566851" y2="-259.27384673425234" stroke-width="1" stroke="red" />
	<line x1="-75.70115760566851" y1="-259.27384673425234" x2="-85.44876954758072" y2="-261.50634789436185" stroke-width="1" stroke="red" />
	<line x1="-85.44876954758072" y1="-261.50634789436185" x2="-93.26397427176892" y2="-267.7451438614557" stroke-width="1" stroke="red" />
	<line x1="-93.26397427176892" y1="-267.7451438614557" x2="-101.07917899595711" y2="-273.9839398285495" stroke-width="1" stroke="blue" />
	<line x1="-85.44876954758072" y1="-261.50634789436185" x2="-95.20026309063635" y2="-259.2908629181672" stroke-width="1" stroke="red" />
	<line x1="-95.20026309063635" y1="-259.2908629181672" x2="-104.95175663369199" y2="-257.07537794197253" stroke-width="1" stroke="blue" />
	<line x1="-85.44876954758072" y1="-261.50634789436185" x2="-95.19638148949294" y2="-263.73884905447136" stroke-width="1" stroke="blue" />
	<line x1="-95.19638148949294" y1="-263.73884905447136" x2="-104.94399343140515" y2="-265.97135021458087" stroke-width="1" stroke="blue" />
	<line x1="-104.94399343140515" y1="-265.97135021458087" x2="-114.69160537331736" y2="-268.2038513746904" stroke-width="1" stroke="blue" />
	<line x1="-114.69160537331736" y1="-268.2038513746904" x2="-124.43921731522957" y2="-270.4363525347999" stroke-width="1" stroke="blue" />
	<line x1="-65.9535456637563" y1="-257.04134557414284" x2="-73.7687503879445" y2="-263.2801415412367" stroke-width="1" stroke="blue" />
	<line x1="-73.7687503879445" y1="-263.2801415412367" x2="-81.58395511213268" y2="-269.5189375083305" stroke-width="1" stroke="blue" />
	<line x1="-81.58395511213268" y1="-269.5189375083305" x2="-89.39915983632088" y2="-275.75773347542435" stroke-width="1" stroke="blue" />
	<line x1="-89.39915983632088" y1="-275.75773347542435" x2="-97.21436456050907" y2="-281.9965294425182" stroke-width="1" stroke="blue" />
	<line x1="-97.21436456050907" y1="-281.9965294425182" x2="-105.02956928469726" y2="-288.235325409612" stroke-width="1" stroke="blue" />
	<line x1="-105.02956928469726" y1="-288.235325409612" x2="-112.84477400888545" y2="-294.47412137670585" stroke-width="1" stroke="blue" />
	<line x1="-112.84477400888545" y1="-294.47412137670585" x2="-117.1813648547609" y2="-303.48489158992675" stroke-width="1" stroke="red" />
	<line x1="-117.1813648547609" y1="-303.48489158992675" x2="-121.51795570063635" y2="-312.49566180314764" stroke-width="1" stroke="blue" />
	<line x1="-112.84477400888545" y1="-294.47412137670585" x2="-122.59238595079766" y2="-296.70662253681536" stroke-width="1" stroke="red" />
	<line x1="-122.59238595079766" y1="-296.70662253681536" x2="-132.33999789270987" y2="-298.93912369692487" stroke-width="1" stroke="blue" />
	<line x1="-112.84477400888545" y1="-294.47412137670585" x2="-120.65997873307364" y2="-300.7129173437997" stroke-width="1" stroke="blue" />
	<line x1="-120.65997873307364" y1="-300.7129173437997" x2="-128.47518345726183" y2="-306.9517133108935" stroke-width="1" stroke="blue" />
	<line x1="-128.47518345726183" y1="-306.9517133108935" x2="-136.29038818145003" y2="-313.19050927798736" stroke-width="1" stroke="blue" />
	<line x1="-136.29038818145003" y1="-313.19050927798736" x2="-144.10559290563822" y2="-319.4293052450812" stroke-width="1" stroke="blue" />
	<line x1="-34.692726767003535" y1="-232.08616170576738" x2="-39.02931761287898" y2="-241.0969319189883" stroke-width="1" stroke="blue" />
	<line x1="-39.02931761287898" y1="-241.0969319189883" x2="-43.36590845875442" y2="-250.10770213220923" stroke-width="1" stroke="blue" />
	<line x1="-43.36590845875442" y1="-250.10770213220923" x2="-47.70249930462986" y2="-259.1184723454301" stroke-width="1" stroke="blue" />
	<line x1="-47.70249930462986" y1="-259.1184723454301" x2="-52.0390901505053" y2="-268.129242558651" stroke-width="1" stroke="blue" />
	<line x1="-52.0390901505053" y1="-268.129242558651" x2="-56.375680996380744" y2="-277.1400127718719" stroke-width="1" stroke="blue" />
	<line x1="-56.375680996380744" y1="-277.1400127718719" x2="-60.712271842256186" y2="-286.1507829850928" stroke-width="1" stroke="blue" />
	<line x1="-60.712271842256186" y1="-286.1507829850928" x2="-65.04886268813163" y2="-295.1615531983137" stroke-width="1" stroke="blue" />
	<line x1="-65.04886268813163" y1="-295.1615531983137" x2="-69.38545353400708" y2="-304.1723234115346" stroke-width="1" stroke="blue" />
	<line x1="-69.38545353400708" y1="-304.1723234115346" x2="-73.72204437988253" y2="-313.1830936247555" stroke-width="1" stroke="blue" />
	<line x1="-73.72204437988253" y1="-313.1830936247555" x2="-78.05863522575798" y2="-322.1938638379764" stroke-width="1" stroke="blue" />
	<line x1="-78.05863522575798" y1="-322.1938638379764" x2="-82.39522607163343" y2="-331.2046340511973" stroke-width="1" stroke="blue" />
	<line x1="-82.39522607163343" y1="-331.2046340511973" x2="-86.73181691750888" y2="-340.21540426441817" stroke-width="1" stroke="blue" />
	<line x1="-86.73181691750888" y1="-340.21540426441817" x2="-86.73181691750888" y2="-350.21540426441817" stroke-width="1" stroke="red" />
	<line x1="-86.73181691750888" y1="-350.21540426441817" x2="-86.73181691750888" y2="-360.21540426441817" stroke-width="1" stroke="red" />
	<line x1="-86.73181691750888" y1="-360.21540426441817" x2="-82.39522607163343" y2="-369.22617447763906" stroke-width="1" stroke="red" />
	<line x1="-82.39522607163343" y1="-369.22617447763906" x2="-78.05863522575798" y2="-378.23694469085996" stroke-width="1" stroke="blue" />
	<line x1="-86.73181691750888" y1="-360.21540426441817" x2="-91.06840776338433" y2="-369.22617447763906" stroke-width="1" stroke="red" />
	<line x1="-91.06840776338433" y1="-369.22617447763906" x2="-95.40499860925978" y2="-378.23694469085996" stroke-width="1" stroke="blue" />
	<line x1="-86.73181691750888" y1="-360.21540426441817" x2="-86.73181691750888" y2="-370.21540426441817" stroke-width="1" stroke="blue" />
	<line x1="-86.73181691750888" y1="-370.21540426441817" x2="-86.73181691750888" y2="-380.21540426441817" stroke-width="1" stroke="blue" />
	<line x1="-86.73181691750888" y1="-380.21540426441817" x2="-86.73181691750888" y2="-390.21540426441817" stroke-width="1" stroke="blue" />
	<line x1="-86.73181691750888" y1="-390.21540426441817" x2="-86.73181691750888" y2="-400.21540426441817" stroke-width="1" stroke="blue" />
	<line x1="-86.73181691750888" y1="-340.21540426441817" x2="-94.54702164169707" y2="-346.454200231512" stroke-width="1" stroke="red" />
	<line x1="-94.54702164169707" y1="-346.454200231512" x2="-102.36222636588526" y2="-352.69299619860584" stroke-width="1" stroke="red" />
	<line x1="-102.36222636588526" y1="-352.69299619860584" x2="-106.69881721176071" y2="-361.70376641182673" stroke-width="1" stroke="red" />
	<line x1="-106.69881721176071" y1="-361.70376641182673" x2="-111.03540805763616" y2="-370.71453662504763" stroke-width="1" stroke="blue" />
	<line x1="-102.36222636588526" y1="-352.69299619860584" x2="-112.10983830779747" y2="-354.92549735871535" stroke-width="1" stroke="red" />
	<line x1="-112.10983830779747" y1="-354.92549735871535" x2="-121.85745024970969" y2="-357.15799851882485" stroke-width="1" stroke="blue" />
	<line x1="-102.36222636588526" y1="-352.69299619860584" x2="-110.17743109007345" y2="-358.9317921656997" stroke-width="1" stroke="blue" />
	<line x1="-110.17743109007345" y1="-358.9317921656997" x2="-117.99263581426165" y2="-365.1705881327935" stroke-width="1" stroke="blue" />
	<line x1="-117.99263581426165" y1="-365.1705881327935" x2="-125.80784053844984" y2="-371.40938409988735" stroke-width="1" stroke="blue" />
	<line x1="-125.80784053844984" y1="-371.40938409988735" x2="-133.62304526263802" y2="-377.6481800669812" stroke-width="1" stroke="blue" />
	<line x1="-86.73181691750888" y1="-340.21540426441817" x2="-91.06840776338433" y2="-349.22617447763906" stroke-width="1" stroke="blue" />
	<line x1="-91.06840776338433" y1="-349.22617447763906" x2="-95.40499860925978" y2="-358.23694469085996" stroke-width="1" stroke="blue" />
	<line x1="-95.40499860925978" y1="-358.23694469085996" x2="-99.74158945513523" y2="-367.24771490408085" stroke-width="1" stroke="blue" />
	<line x1="-99.74158945513523" y1="-367.24771490408085" x2="-104.07818030101068" y2="-376.25848511730175" stroke-width="1" stroke="blue" />
	<line x1="-104.07818030101068" y1="-376.25848511730175" x2="-108.41477114688612" y2="-385.26925533052264" stroke-width="1" stroke="blue" />
	<line x1="-108.41477114688612" y1="-385.26925533052264" x2="-112.75136199276157" y2="-394.28002554374353" stroke-width="1" stroke="blue" />
	<line x1="-112.75136199276157" y1="-394.28002554374353" x2="-112.75136199276157" y2="-404.28002554374353" stroke-width="1" stroke="red" />
	<line x1="-112.75136199276157" y1="-404.28002554374353" x2="-112.75136199276157" y2="-414.28002554374353" stroke-width="1" stroke="blue" />
	<line x1="-112.75136199276157" y1="-394.28002554374353" x2="-120.56656671694977" y2="-400.51882151083737" stroke-width="1" stroke="red" />
	<line x1="-120.56656671694977" y1="-400.51882151083737" x2="-128.38177144113794" y2="-406.7576174779312" stroke-width="1" stroke="blue" />
	<line x1="-112.75136199276157" y1="-394.28002554374353" x2="-117.08795283863702" y2="-403.2907957569644" stroke-width="1" stroke="blue" />
	<line x1="-117.08795283863702" y1="-403.2907957569644" x2="-121.42454368451247" y2="-412.3015659701853" stroke-width="1" stroke="blue" />
	<line x1="-121.42454368451247" y1="-412.3015659701853" x2="-125.76113453038792" y2="-421.3123361834062" stroke-width="1" stroke="blue" />
	<line x1="-125.76113453038792" y1="-421.3123361834062" x2="-130.09772537626336" y2="-430.3231063966271" stroke-width="1" stroke="blue" />
	<line x1="9.797174393178829e-15" y1="-160.0" x2="1.0409497792752507e-14" y2="-170.0" stroke-width="1" stroke="blue" />
	<line x1="1.0409497792752507e-14" y1="-170.0" x2="1.1021821192326184e-14" y2="-180.0" stroke-width="1" stroke="blue" />
	<line x1="1.1021821192326184e-14" y1="-180.0" x2="1.1634144591899861e-14" y2="-190.0" stroke-width="1" stroke="blue" />
	<line x1="1.1634144591899861e-14" y1="-190.0" x2="1.2246467991473538e-14" y2="-200.0" stroke-width="1" stroke="blue" />
	<line x1="1.2246467991473538e-14" y1="-200.0" x2="1.2858791391047216e-14" y2="-210.0" stroke-width="1" stroke="blue" />
	<line x1="1.2858791391047216e-14" y1="-210.0" x2="1.3471114790620893e-14" y2="-220.0" stroke-width="1" stroke="blue" />
	<line x1="1.3471114790620893e-14" y1="-220.0" x2="1.408343819019457e-14" y2="-230.0" stroke-width="1" stroke="blue" />
	<line x1="1.408343819019457e-14" y1="-230.0" x2="1.4695761589768246e-14" y2="-240.0" stroke-width="1" stroke="blue" />
	<line x1="1.4695761589768246e-14" y1="-240.0" x2="1.5308084989341922e-14" y2="-250.0" stroke-width="1" stroke="blue" />
	<line x1="1.5308084989341922e-14" y1="-250.0" x2="1.5920408388915598e-14" y2="-260.0" stroke-width="1" stroke="blue" />
	<line x1="1.5920408388915598e-14" y1="-260.0" x2="1.6532731788489273e-14" y2="-270.0" stroke-width="1" stroke="blue" />
	<line x1="1.6532731788489273e-14" y1="-270.0" x2="1.714505518806295e-14" y2="-280.0" stroke-width="1" stroke="blue" />
	<line x1="1.714505518806295e-14" y1="-280.0" x2="1.7757378587636625e-14" y2="-290.0" stroke-width="1" stroke="blue" />
	<line x1="1.7757378587636625e-14" y1="-290.0" x2="1.83697019872103e-14" y2="-300.0" stroke-width="1" stroke="blue" />
	<line x1="1.83697019872103e-14" y1="-300.0" x2="1.8982025386783976e-14" y2="-310.0" stroke-width="1" stroke="blue" />
	<line x1="1.8982025386783976e-14" y1="-310.0" x2="1.9594348786357652e-14" y2="-320.0" stroke-width="1" stroke="blue" />
	<line x1="1.9594348786357652e-14" y1="-320.0" x2="2.0206672185931328e-14" y2="-330.0" stroke-width="1" stroke="blue" />
	<line x1="2.0206672185931328e-14" y1="-330.0" x2="2.0818995585505004e-14" y2="-340.0" stroke-width="1" stroke="blue" />
	<line x1="2.0818995585505004e-14" y1="-340.0" x2="2.143131898507868e-14" y2="-350.0" stroke-width="1" stroke="blue" />
	<line x1="2.143131898507868e-14" y1="-350.0" x2="2.2043642384652355e-14" y2="-360.0" stroke-width="1" stroke="blue" />
	<line x1="2.2043642384652355e-14" y1="-360.0" x2="2.265596578422603e-14" y2="-370.0" stroke-width="1" stroke="blue" />
	<line x1="2.265596578422603e-14" y1="-370.0" x2="2.3268289183799707e-14" y2="-380.0" stroke-width="1" stroke="blue" />
	<line x1="2.3268289183799707e-14" y1="-380.0" x2="2.3880612583373382e-14" y2="-390.0" stroke-width="1" stroke="blue" />
	<line x1="2.3880612583373382e-14" y1="-390.0" x2="2.4492935982947058e-14" y2="-400.0" stroke-width="1" stroke="blue" />
	<line x1="2.4492935982947058e-14" y1="-400.0" x2="4.336590845875469" y2="-409.0107702132209" stroke-width="1" stroke="red" />
	<line x1="4.336590845875469" y1="-409.0107702132209" x2="8.673181691750914" y2="-418.0215404264418" stroke-width="1" stroke="red" />
	<line x1="8.673181691750914" y1="-418.0215404264418" x2="13.009772537626358" y2="-427.0323106396627" stroke-width="1" stroke="red" />
	<line x1="13.009772537626358" y1="-427.0323106396627" x2="17.346363383501803" y2="-436.0430808528836" stroke-width="1" stroke="red" />
	<line x1="17.346363383501803" y1="-436.0430808528836" x2="25.16156810768999" y2="-442.2818768199774" stroke-width="1" stroke="red" />
	<line x1="25.16156810768999" y1="-442.2818768199774" x2="32.97677283187818" y2="-448.52067278707125" stroke-width="1" stroke="red" />
	<line x1="32.97677283187818" y1="-448.52067278707125" x2="42.7243847737904" y2="-450.75317394718076" stroke-width="1" stroke="red" />
	<line x1="42.7243847737904" y1="-450.75317394718076" x2="52.471996715702616" y2="-452.98567510729026" stroke-width="1" stroke="blue" />
	<line x1="32.97677283187818" y1="-448.52067278707125" x2="37.31336367775362" y2="-457.53144300029214" stroke-width="1" stroke="red" />
	<line x1="37.31336367775362" y1="-457.53144300029214" x2="41.64995452362906" y2="-466.54221321351304" stroke-width="1" stroke="blue" />
	<line x1="32.97677283187818" y1="-448.52067278707125" x2="40.79197755606637" y2="-454.7594687541651" stroke-width="1" stroke="blue" />
	<line x1="40.79197755606637" y1="-454.7594687541651" x2="48.60718228025456" y2="-460.9982647212589" stroke-width="1" stroke="blue" />
	<line x1="48.60718228025456" y1="-460.9982647212589" x2="56.422387004442754" y2="-467.23706068835276" stroke-width="1" stroke="blue" />
	<line x1="56.422387004442754" y1="-467.23706068835276" x2="64.23759172863095" y2="-473.4758566554466" stroke-width="1" stroke="blue" />
	<line x1="17.346363383501803" y1="-436.0430808528836" x2="17.346363383501803" y2="-446.0430808528836" stroke-width="1" stroke="red" />
	<line x1="17.346363383501803" y1="-446.0430808528836" x2="17.346363383501803" y2="-456.0430808528836" stroke-width="1" stroke="red" />
	<line x1="17.346363383501803" y1="-456.0430808528836" x2="21.68295422937725" y2="-465.05385106610447" stroke-width="1" stroke="red" />
	<line x1="21.68295422937725" y1="-465.05385106610447" x2="26.019545075252694" y2="-474.06462127932537" stroke-width="1" stroke="blue" />
	<line x1="17.346363383501803" y1="-456.0430808528836" x2="13.00977253762636" y2="-465.05385106610447" stroke-width="1" stroke="red" />
	<line x1="13.00977253762636" y1="-465.05385106610447" x2="8.673181691750916" y2="-474.06462127932537" stroke-width="1" stroke="blue" />
	<line x1="17.346363383501803" y1="-456.0430808528836" x2="17.346363383501803" y2="-466.0430808528836" stroke-width="1" stroke="blue" />
	<line x1="17.346363383501803" y1="-466.0430808528836" x2="17.346363383501803" y2="-476.0430808528836" stroke-width="1" stroke="blue" />
	<line x1="17.346363383501803" y1="-476.0430808528836" x2="17.346363383501803" y2="-486.0430808528836" stroke-width="1" stroke="blue" />
	<line x1="17.346363383501803" y1="-486.0430808528836" x2="17.346363383501803" y2="-496.0430808528836" stroke-width="1" stroke="blue" />
	<line x1="17.346363383501803" y1="-436.0430808528836" x2="21.68295422937725" y2="-445.05385106610447" stroke-width="1" stroke="blue" />
	<line x1="21.68295422937725" y1="-445.05385106610447" x2="26.019545075252694" y2="-454.06462127932537" stroke-width="1" stroke="blue" />
	<line x1="26.019545075252694" y1="-454.06462127932537" x2="30.35613592112814" y2="-463.07539149254626" stroke-width="1" stroke="blue" />
	<line x1="30.35613592112814" y1="-463.07539149254626" x2="34.692726767003585" y2="-472.08616170576715" stroke-width="1" stroke="blue" />
	<line x1="34.692726767003585" y1="-472.08616170576715" x2="39.02931761287903" y2="-481.09693191898805" stroke-width="1" stroke="blue" />
	<line x1="39.02931761287903" y1="-481.09693191898805" x2="43.36590845875447" y2="-490.10770213220894" stroke-width="1" stroke="blue" />
	<line x1="43.36590845875447" y1="-490.10770213220894" x2="51.18111318294265" y2="-496.3464980993028" stroke-width="1" stroke="red" />
	<line x1="51.18111318294265" y1="-496.3464980993028" x2="58.996317907130845" y2="-502.5852940663966" stroke-width="1" stroke="blue" />
	<line x1="43.36590845875447" y1="-490.10770213220894" x2="43.36590845875447" y2="-500.10770213220894" stroke-width="1" stroke="red" />
	<line x1="43.36590845875447" y1="-500.10770213220894" x2="43.36590845875447" y2="-510.10770213220894" stroke-width="1" stroke="blue" />
	<line x1="43.36590845875447" y1="-490.10770213220894" x2="47.70249930462991" y2="-499.11847234542984" stroke-width="1" stroke="blue" />
	<line x1="47.70249930462991" y1="-499.11847234542984" x2="52.03909015050535" y2="-508.12924255865073" stroke-width="1" stroke="blue" />
	<line x1="52.03909015050535" y1="-508.12924255865073" x2="56.375680996380794" y2="-517.1400127718716" stroke-width="1" stroke="blue" />
	<line x1="56.375680996380794" y1="-517.1400127718716" x2="60.712271842256236" y2="-526.1507829850925" stroke-width="1" stroke="blue" />
	<line x1="2.4492935982947058e-14" y1="-400.0" x2="-4.336590845875419" y2="-409.0107702132209" stroke-width="1" stroke="red" />
	<line x1="-4.336590845875419" y1="-409.0107702132209" x2="-8.673181691750862" y2="-418.0215404264418" stroke-width="1" stroke="red" />
	<line x1="-8.673181691750862" y1="-418.0215404264418" x2="-13.009772537626306" y2="-427.0323106396627" stroke-width="1" stroke="red" />
	<line x1="-13.009772537626306" y1="-427.0323106396627" x2="-17.34636338350175" y2="-436.0430808528836" stroke-width="1" stroke="red" />
	<line x1="-17.34636338350175" y1="-436.0430808528836" x2="-17.34636338350175" y2="-446.0430808528836" stroke-width="1" stroke="red" />
	<line x1="-17.34636338350175" y1="-446.0430808528836" x2="-17.34636338350175" y2="-456.0430808528836" stroke-width="1" stroke="red" />
	<line x1="-17.34636338350175" y1="-456.0430808528836" x2="-13.009772537626304" y2="-465.05385106610447" stroke-width="1" stroke="red" />
	<line x1="-13.009772537626304" y1="-465.05385106610447" x2="-8.673181691750859" y2="-474.06462127932537" stroke-width="1" stroke="blue" />
	<line x1="-17.34636338350175" y1="-456.0430808528836" x2="-21.682954229377195" y2="-465.05385106610447" stroke-width="1" stroke="red" />
	<line x1="-21.682954229377195" y1="-465.05385106610447" x2="-26.019545075252637" y2="-474.06462127932537" stroke-width="1" stroke="blue" />
	<line x1="-17.34636338350175" y1="-456.0430808528836" x2="-17.34636338350175" y2="-466.0430808528836" stroke-width="1" stroke="blue" />
	<line x1="-17.34636338350175" y1="-466.0430808528836" x2="-17.34636338350175" y2="-476.0430808528836" stroke-width="1" stroke="blue" />
	<line x1="-17.34636338350175" y1="-476.0430808528836" x2="-17.34636338350175" y2="-486.0430808528836" stroke-width="1" stroke="blue" />
	<line x1="-17.34636338350175" y1="-486.0430808528836" x2="-17.34636338350175" y2="-496.0430808528836" stroke-width="1" stroke="blue" />
	<line x1="-17.34636338350175" y1="-436.0430808528836" x2="-25.161568107689938" y2="-442.2818768199774" stroke-width="1" stroke="red" />
	<line x1="-25.161568107689938" y1="-442.2818768199774" x2="-32.97677283187812" y2="-448.52067278707125" stroke-width="1" stroke="red" />
	<line x1="-32.97677283187812" y1="-448.52067278707125" x2="-37.313363677753564" y2="-457.53144300029214" stroke-width="1" stroke="red" />
	<line x1="-37.313363677753564" y1="-457.53144300029214" x2="-41.649954523629006" y2="-466.54221321351304" stroke-width="1" stroke="blue" />
	<line x1="-32.97677283187812" y1="-448.52067278707125" x2="-42.72438477379034" y2="-450.75317394718076" stroke-width="1" stroke="red" />
	<line x1="-42.72438477379034" y1="-450.75317394718076" x2="-52.47199671570256" y2="-452.98567510729026" stroke-width="1" stroke="blue" />
	<line x1="-32.97677283187812" y1="-448.52067278707125" x2="-40.791977556066314" y2="-454.7594687541651" stroke-width="1" stroke="blue" />
	<line x1="-40.791977556066314" y1="-454.7594687541651" x2="-48.607182280254506" y2="-460.9982647212589" stroke-width="1" stroke="blue" />
	<line x1="-48.607182280254506" y1="-460.9982647212589" x2="-56.4223870044427" y2="-467.23706068835276" stroke-width="1" stroke="blue" />
	<line x1="-56.4223870044427" y1="-467.23706068835276" x2="-64.23759172863089" y2="-473.4758566554466" stroke-width="1" stroke="blue" />
	<line x1="-17.34636338350175" y1="-436.0430808528836" x2="-21.682954229377195" y2="-445.05385106610447" stroke-width="1" stroke="blue" />
	<line x1="-21.682954229377195" y1="-445.05385106610447" x2="-26.019545075252637" y2="-454.06462127932537" stroke-width="1" stroke="blue" />
	<line x1="-26.019545075252637" y1="-454.06462127932537" x2="-30.35613592112808" y2="-463.07539149254626" stroke-width="1" stroke="blue" />
	<line x1="-30.35613592112808" y1="-463.07539149254626" x2="-34.69272676700352" y2="-472.08616170576715" stroke-width="1" stroke="blue" />
	<line x1="-34.69272676700352" y1="-472.08616170576715" x2="-39.02931761287896" y2="-481.09693191898805" stroke-width="1" stroke="blue" />
	<line x1="-39.02931761287896" y1="-481.09693191898805" x2="-43.365908458754404" y2="-490.10770213220894" stroke-width="1" stroke="blue" />
	<line x1="-43.365908458754404" y1="-490.10770213220894" x2="-43.365908458754404" y2="-500.10770213220894" stroke-width="1" stroke="red" />
	<line x1="-43.365908458754404" y1="-500.10770213220894" x2="-43.365908458754404" y2="-510.10770213220894" stroke-width="1" stroke="blue" />
	<line x1="-43.365908458754404" y1="-490.10770213220894" x2="-51.181113182942596" y2="-496.3464980993028" stroke-width="1" stroke="red" />
	<line x1="-51.181113182942596" y1="-496.3464980993028" x2="-58.99631790713079" y2="-502.5852940663966" stroke-width="1" stroke="blue" />
	<line x1="-43.365908458754404" y1="-490.10770213220894" x2="-47.702499304629846" y2="-499.11847234542984" stroke-width="1" stroke="blue" />
	<line x1="-47.702499304629846" y1="-499.11847234542984" x2="-52.03909015050529" y2="-508.12924255865073" stroke-width="1" stroke="blue" />
	<line x1="-52.03909015050529" y1="-508.12924255865073" x2="-56.37568099638073" y2="-517.1400127718716" stroke-width="1" stroke="blue" />
	<line x1="-56.37568099638073" y1="-517.1400127718716" x2="-60.71227184225617" y2="-526.1507829850925" stroke-width="1" stroke="blue" />
	<line x1="2.4492935982947058e-14" y1="-400.0" x2="2.5105259382520734e-14" y2="-410.0" stroke-width="1" stroke="blue" />
	<line x1="2.5105259382520734e-14" y1="-410.0" x2="2.571758278209441e-14" y2="-420.0" stroke-width="1" stroke="blue" />
	<line x1="2.571758278209441e-14" y1="-420.0" x2="2.6329906181668085e-14" y2="-430.0" stroke-width="1" stroke="blue" />
	<line x1="2.6329906181668085e-14" y1="-430.0" x2="2.694222958124176e-14" y2="-440.0" stroke-width="1" stroke="blue" />
	<line x1="2.694222958124176e-14" y1="-440.0" x2="2.7554552980815437e-14" y2="-450.0" stroke-width="1" stroke="blue" />
	<line x1="2.7554552980815437e-14" y1="-450.0" x2="2.8166876380389112e-14" y2="-460.0" stroke-width="1" stroke="blue" />
	<line x1="2.8166876380389112e-14" y1="-460.0" x2="2.877919977996279e-14" y2="-470.0" stroke-width="1" stroke="blue" />
	<line x1="2.877919977996279e-14" y1="-470.0" x2="2.939152317953647e-14" y2="-480.0" stroke-width="1" stroke="blue" />
	<line x1="2.939152317953647e-14" y1="-480.0" x2="3.000384657911014e-14" y2="-490.0" stroke-width="1" stroke="blue" />
	<line x1="3.000384657911014e-14" y1="-490.0" x2="3.061616997868382e-14" y2="-500.0" stroke-width="1" stroke="blue" />
	<line x1="3.061616997868382e-14" y1="-500.0" x2="3.1228493378257494e-14" y2="-510.0" stroke-width="1" stroke="blue" />
	<line x1="3.1228493378257494e-14" y1="-510.0" x2="3.184081677783117e-14" y2="-520.0" stroke-width="1" stroke="blue" />
	<line x1="3.184081677783117e-14" y1="-520.0" x2="4.3365908458754765" y2="-529.0107702132209" stroke-width="1" stroke="red" />
	<line x1="4.3365908458754765" y1="-529.0107702132209" x2="8.673181691750921" y2="-538.0215404264418" stroke-width="1" stroke="red" />
	<line x1="8.673181691750921" y1="-538.0215404264418" x2="16.48838641593911" y2="-544.2603363935357" stroke-width="1" stroke="red" />
	<line x1="16.48838641593911" y1="-544.2603363935357" x2="24.3035911401273" y2="-550.4991323606296" stroke-width="1" stroke="blue" />
	<line x1="8.673181691750921" y1="-538.0215404264418" x2="8.673181691750921" y2="-548.0215404264418" stroke-width="1" stroke="red" />
	<line x1="8.673181691750921" y1="-548.0215404264418" x2="8.673181691750921" y2="-558.0215404264418" stroke-width="1" stroke="blue" />
	<line x1="8.673181691750921" y1="-538.0215404264418" x2="13.009772537626365" y2="-547.0323106396627" stroke-width="1" stroke="blue" />
	<line x1="13.009772537626365" y1="-547.0323106396627" x2="17.34636338350181" y2="-556.0430808528836" stroke-width="1" stroke="blue" />
	<line x1="17.34636338350181" y1="-556.0430808528836" x2="21.682954229377255" y2="-565.0538510661045" stroke-width="1" stroke="blue" />
	<line x1="21.682954229377255" y1="-565.0538510661045" x2="26.0195450752527" y2="-574.0646212793254" stroke-width="1" stroke="blue" />
	<line x1="3.184081677783117e-14" y1="-520.0" x2="-4.336590845875412" y2="-529.0107702132209" stroke-width="1" stroke="red" />
	<line x1="-4.336590845875412" y1="-529.0107702132209" x2="-8.673181691750855" y2="-538.0215404264418" stroke-width="1" stroke="red" />
	<line x1="-8.673181691750855" y1="-538.0215404264418" x2="-8.673181691750855" y2="-548.0215404264418" stroke-width="1" stroke="red" />
	<line x1="-8.673181691750855" y1="-548.0215404264418" x2="-8.673181691750855" y2="-558.0215404264418" stroke-width="1" stroke="blue" />
	<line x1="-8.673181691750855" y1="-538.0215404264418" x2="-16.488386415939043" y2="-544.2603363935357" stroke-width="1" stroke="red" />
	<line x1="-16.488386415939043" y1="-544.2603363935357" x2="-24.30359114012723" y2="-550.4991323606296" stroke-width="1" stroke="blue" />
	<line x1="-8.673181691750855" y1="-538.0215404264418" x2="-13.009772537626299" y2="-547.0323106396627" stroke-width="1" stroke="blue" />
	<line x1="-13.009772537626299" y1="-547.0323106396627" x2="-17.346363383501743" y2="-556.0430808528836" stroke-width="1" stroke="blue" />
	<line x1="-17.346363383501743" y1="-556.0430808528836" x2="-21.682954229377188" y2="-565.0538510661045" stroke-width="1" stroke="blue" />
	<line x1="-21.682954229377188" y1="-565.0538510661045" x2="-26.01954507525263" y2="-574.0646212793254" stroke-width="1" stroke="blue" />
	<line x1="3.184081677783117e-14" y1="-520.0" x2="3.2453140177404846e-14" y2="-530.0" stroke-width="1" stroke="blue" />
	<line x1="3.2453140177404846e-14" y1="-530.0" x2="3.306546357697852e-14" y2="-540.0" stroke-width="1" stroke="blue" />
	<line x1="3.306546357697852e-14" y1="-540.0" x2="3.36777869765522e-14" y2="-550.0" stroke-width="1" stroke="blue" />
	<line x1="3.36777869765522e-14" y1="-550.0" x2="3.429011037612587e-14" y2="-560.0" stroke-width="1" stroke="blue" />
	<line x1="3.429011037612587e-14" y1="-560.0" x2="3.490243377569955e-14" y2="-570.0" stroke-width="1" stroke="blue" />
	<line x1="3.490243377569955e-14" y1="-570.0" x2="3.5514757175273225e-14" y2="-580.0" stroke-width="1" stroke="blue" />
	<line x1="3.5514757175273225e-14" y1="-580.0" x2="4.33659084587548" y2="-589.0107702132209" stroke-width="1" stroke="red" />
	<line x1="4.33659084587548" y1="-589.0107702132209" x2="8.673181691750925" y2="-598.0215404264418" stroke-width="1" stroke="blue" />
	<line x1="3.5514757175273225e-14" y1="-580.0" x2="-4.336590845875408" y2="-589.0107702132209" stroke-width="1" stroke="red" />
	<line x1="-4.336590845875408" y1="-589.0107702132209" x2="-8.673181691750852" y2="-598.0215404264418" stroke-width="1" stroke="blue" />
	<line x1="3.5514757175273225e-14" y1="-580.0" x2="3.61270805748469e-14" y2="-590.0" stroke-width="1" stroke="blue" />
	<line x1="3.61270805748469e-14" y1="-590.0" x2="3.6739403974420576e-14" y2="-600.0" stroke-width="1" stroke="blue" />
	<line x1="3.6739403974420576e-14" y1="-600.0" x2="3.735172737399425e-14" y2="-610.0" stroke-width="1" stroke="blue" />
	<line x1="3.735172737399425e-14" y1="-610.0" x2="3.796405077356793e-14" y2="-620.0" stroke-width="1" stroke="blue" />
</svg>
